<?xml version="1.0" encoding="UTF-8"?>
<svg version="1.1" xmlns="http://www.w3.org/2000/svg" width="278" height="278">
<path d="M0 0 C0.77956055 0.19867676 1.55912109 0.39735352 2.36230469 0.60205078 C23.86225517 6.19706713 42.0258738 15.56551405 59 30 C59.95777344 30.81082031 60.91554687 31.62164062 61.90234375 32.45703125 C87.5226667 54.7146609 102.72046312 86.61262892 107 120 C107.90814092 137.52023032 107.90200497 155.04927239 103 172 C102.75862305 172.8559375 102.51724609 173.711875 102.26855469 174.59375 C93.90252282 203.55390055 77.16807599 228.74991329 53 247 C52.22398437 247.59167969 51.44796875 248.18335938 50.6484375 248.79296875 C32.31458844 262.19078153 12.30246257 270.19595529 -10 274 C-11.57007813 274.28810547 -11.57007813 274.28810547 -13.171875 274.58203125 C-51.48629913 278.76534082 -88.41429027 269.60913178 -118.75390625 245.61279297 C-145.85706088 223.72684926 -165.97888468 192.04327934 -170.6015625 157 C-172.30222616 139.373566 -172.56308812 120.17113882 -168 103 C-167.82839355 102.34757324 -167.65678711 101.69514648 -167.47998047 101.02294922 C-161.87313707 80.22401538 -152.28516252 61.17410963 -138 45 C-137.16855469 44.02417969 -136.33710938 43.04835937 -135.48046875 42.04296875 C-116.66035208 20.34275632 -91.50458728 7.10049093 -64 0 C-63.31808594 -0.18079102 -62.63617188 -0.36158203 -61.93359375 -0.54785156 C-42.47018717 -5.49234324 -19.38580722 -5.12017167 0 0 Z " fill="#FCFDFC" transform="translate(171,3)"/>
<path d="M0 0 C0.77956055 0.19867676 1.55912109 0.39735352 2.36230469 0.60205078 C23.86225517 6.19706713 42.0258738 15.56551405 59 30 C59.95777344 30.81082031 60.91554687 31.62164062 61.90234375 32.45703125 C87.5226667 54.7146609 102.72046312 86.61262892 107 120 C107.90814092 137.52023032 107.90200497 155.04927239 103 172 C102.75862305 172.8559375 102.51724609 173.711875 102.26855469 174.59375 C93.90252282 203.55390055 77.16807599 228.74991329 53 247 C52.22398437 247.59167969 51.44796875 248.18335938 50.6484375 248.79296875 C32.31458844 262.19078153 12.30246257 270.19595529 -10 274 C-11.57007813 274.28810547 -11.57007813 274.28810547 -13.171875 274.58203125 C-51.48629913 278.76534082 -88.41429027 269.60913178 -118.75390625 245.61279297 C-145.85706088 223.72684926 -165.97888468 192.04327934 -170.6015625 157 C-172.30222616 139.373566 -172.56308812 120.17113882 -168 103 C-167.82839355 102.34757324 -167.65678711 101.69514648 -167.47998047 101.02294922 C-161.87313707 80.22401538 -152.28516252 61.17410963 -138 45 C-137.16855469 44.02417969 -136.33710938 43.04835937 -135.48046875 42.04296875 C-116.66035208 20.34275632 -91.50458728 7.10049093 -64 0 C-63.31808594 -0.18079102 -62.63617188 -0.36158203 -61.93359375 -0.54785156 C-42.47018717 -5.49234324 -19.38580722 -5.12017167 0 0 Z M-115 37 C-115.81855469 37.69738281 -116.63710937 38.39476563 -117.48046875 39.11328125 C-140.79999657 59.46815592 -158.32266037 89.68544714 -161 121 C-161.95113319 137.38835996 -161.4116339 153.14854302 -157 169 C-156.79101074 169.7645752 -156.58202148 170.52915039 -156.36669922 171.31689453 C-150.51654715 192.0663103 -139.77942564 209.37886503 -125 225 C-124.24074219 225.82371094 -123.48148438 226.64742187 -122.69921875 227.49609375 C-106.87596263 244.09626915 -85.96766483 254.98774276 -64 261 C-62.8140625 261.33902344 -61.628125 261.67804688 -60.40625 262.02734375 C-51.16182689 264.20782181 -41.88839368 264.31002027 -32.4375 264.375 C-31.14755127 264.38901855 -29.85760254 264.40303711 -28.52856445 264.41748047 C-19.29737358 264.37176119 -10.95176602 263.08988816 -2 261 C-1.04617432 260.78754639 -0.09234863 260.57509277 0.89038086 260.35620117 C32.88144122 252.98485183 60.30489287 230.76100031 77.70605469 203.52246094 C95.37323683 174.97609464 101.02572433 139.75004119 93.96875 106.88671875 C88.9295713 85.95434523 78.80932559 67.43967332 65 51 C64.4121875 50.2884375 63.824375 49.576875 63.21875 48.84375 C43.08148739 25.04516691 11.45528289 10.08797918 -19.3112793 7.20947266 C-54.34642279 4.47995725 -88.24189624 13.74968127 -115 37 Z " fill="#FBFCFC" transform="translate(171,3)"/>
<path d="M0 0 C0.93714844 0.18304688 1.87429687 0.36609375 2.83984375 0.5546875 C37.27593532 8.20715229 65.91617191 28.4371056 85 58 C103.10956557 87.0743416 109.01953334 121.939091 101.97460938 155.63818359 C97.38099506 174.97791032 88.21891733 194.09867501 75 209 C74.16726562 209.96421875 73.33453125 210.9284375 72.4765625 211.921875 C54.55034357 232.35404964 29.91938876 247.86388321 3 253 C2.1325415 253.17426514 1.26508301 253.34853027 0.37133789 253.52807617 C-7.77462086 255.04025177 -15.72539643 255.38628658 -24 255.375 C-24.67709015 255.37445618 -25.3541803 255.37391235 -26.05178833 255.37335205 C-61.14176502 255.24435806 -91.82933613 241.08052766 -116.75 216.6875 C-132.50926808 200.76939266 -143.10394644 181.57037327 -149 160 C-149.31541748 158.86667236 -149.31541748 158.86667236 -149.63720703 157.71044922 C-158.44964258 124.72835671 -152.43813688 90.50765008 -135.76538086 61.15380859 C-132.33279485 55.32380933 -128.51447393 50.04767951 -124 45 C-123.30390625 44.1853125 -122.6078125 43.370625 -121.890625 42.53125 C-91.84044388 8.00550999 -45.30277661 -9.33225385 0 0 Z M-63 13 C-64.67255859 13.55880859 -64.67255859 13.55880859 -66.37890625 14.12890625 C-78.93499426 18.92730473 -90.94126118 26.12363423 -101 35 C-101.82886719 35.70898438 -102.65773437 36.41796875 -103.51171875 37.1484375 C-114.60357247 46.83045376 -122.68175457 57.32479892 -130 70 C-130.59039062 71.02222656 -131.18078125 72.04445313 -131.7890625 73.09765625 C-136.20697057 81.33309002 -138.68894542 89.99572722 -141 99 C-141.32226562 100.20398438 -141.64453125 101.40796875 -141.9765625 102.6484375 C-148.60401609 130.70672233 -142.57948626 163.39838898 -127.64453125 187.98046875 C-121.49104088 197.67830208 -114.14241186 205.92012587 -106 214 C-104.82824219 215.16789062 -104.82824219 215.16789062 -103.6328125 216.359375 C-88.47481606 230.80905385 -69.29609859 239.47306892 -49 244 C-48.26499268 244.17732666 -47.52998535 244.35465332 -46.77270508 244.53735352 C-39.9691865 246.07147356 -33.39727261 246.34800379 -26.4375 246.3125 C-25.29361816 246.30758545 -24.14973633 246.3026709 -22.97119141 246.29760742 C9.5847415 245.85059947 39.52310997 232.7255991 62.41210938 209.67431641 C86.73778668 184.02464006 96.08722813 152.71016709 95.3203125 117.94921875 C95.038115 110.32684091 94.19797362 103.33551358 92 96 C91.52433594 94.24236328 91.52433594 94.24236328 91.0390625 92.44921875 C86.40893003 76.9005115 78.38958823 62.42602294 68 50 C67.32066406 49.18144531 66.64132813 48.36289062 65.94140625 47.51953125 C47.80045654 26.40813364 20.2635886 11.09743548 -7.62084961 8.16113281 C-26.42655622 6.88747798 -44.98844605 6.93589498 -63 13 Z " fill="#1D4574" transform="translate(163,12)"/>
<path d="M0 0 C3.35567057 1.51764187 4.79489861 4.43151283 6.67919922 7.45581055 C7.56546865 8.83175111 8.45220572 10.20739054 9.33935547 11.58276367 C9.79906738 12.30375244 10.2587793 13.02474121 10.73242188 13.76757812 C13.06173476 17.39412303 15.46750076 20.96904014 17.86669922 24.54956055 C18.82801275 25.99071604 19.78894939 27.432123 20.74951172 28.8737793 C21.46349121 29.94474854 21.46349121 29.94474854 22.19189453 31.03735352 C36.14794922 51.97143555 36.14794922 51.97143555 36.14794922 54.97143555 C34.03076172 56.47143555 34.03076172 56.47143555 31.27294922 57.97143555 C27.86523236 59.83548579 26.33988579 60.6835307 24.14794922 63.97143555 C22.49182333 64.68179898 20.83294226 65.38670652 19.15820312 66.05200195 C15.41340872 67.76476558 12.16919845 70.26444467 8.83544922 72.65893555 C7.42566353 73.66701494 6.01303782 74.67113826 4.59716797 75.6706543 C3.98188232 76.1123999 3.36659668 76.55414551 2.73266602 77.00927734 C1.14794922 77.97143555 1.14794922 77.97143555 -0.85205078 77.97143555 C-0.85205078 78.63143555 -0.85205078 79.29143555 -0.85205078 79.97143555 C-2.24282379 80.79256732 -3.63993971 81.60296049 -5.03955078 82.40893555 C-5.81685547 82.86139648 -6.59416016 83.31385742 -7.39501953 83.7800293 C-14.71539231 87.32965362 -24.7885286 87.09258493 -32.53955078 85.03393555 C-41.26295337 81.59598314 -47.2767908 74.51027465 -51.01220703 66.13549805 C-54.06458681 58.27029619 -54.28380391 47.97022881 -51.94580078 39.80737305 C-50.75520021 37.3422193 -49.44948843 35.19153034 -47.85205078 32.97143555 C-47.47564453 32.37717773 -47.09923828 31.78291992 -46.71142578 31.1706543 C-42.30609721 25.10635706 -35.3753151 21.40562063 -29.15283203 17.44262695 C-26.62518718 15.82637187 -24.11282771 14.18798382 -21.60205078 12.5456543 C-12.49101404 6.59078216 -12.49101404 6.59078216 -8.88232422 4.28051758 C-7.242907 3.22345227 -5.62573549 2.13193321 -4.01611328 1.0300293 C-1.85205078 -0.02856445 -1.85205078 -0.02856445 0 0 Z " fill="#2E5885" transform="translate(119.85205078125,139.028564453125)"/>
<path d="M0 0 C7.16428588 1.09541805 12.81970284 5.12830203 17.3125 10.75 C22.72278874 18.69212303 25.15839711 26.37965326 24 36 C21.79570868 46.32625705 16.62322611 54.92173747 8 61 C4.49812524 63.23924286 0.93797806 65.38065843 -2.63354492 67.5065918 C-9.62660853 71.68897763 -16.32208334 76.24384637 -22.98168945 80.93603516 C-23.74054443 81.46632324 -24.49939941 81.99661133 -25.28125 82.54296875 C-25.95220703 83.01758545 -26.62316406 83.49220215 -27.31445312 83.98120117 C-29 85 -29 85 -31 85 C-32.61281546 82.82315645 -34.09986821 80.65042091 -35.5625 78.375 C-36.21762573 77.36796021 -36.21762573 77.36796021 -36.88598633 76.34057617 C-37.79982121 74.93453715 -38.71114922 73.52686603 -39.62011719 72.11767578 C-40.95433484 70.07008132 -42.31879437 68.04667464 -43.6953125 66.02734375 C-44.52630238 64.78923745 -45.35704215 63.55096323 -46.1875 62.3125 C-46.58590088 61.73741699 -46.98430176 61.16233398 -47.39477539 60.56982422 C-50.06261146 56.52997531 -50.06261146 56.52997531 -49.76611328 54.02026367 C-48.90575081 51.75146207 -47.929398 50.50416333 -46.26171875 48.75 C-45.69461182 48.14744385 -45.12750488 47.5448877 -44.54321289 46.92407227 C-43.93082764 46.28912842 -43.31844238 45.65418457 -42.6875 45 C-42.06029053 44.33863037 -41.43308105 43.67726074 -40.78686523 42.99584961 C-36.28697944 38.27343887 -31.6905352 33.65166821 -27.04956055 29.06835938 C-23.83595719 25.88231508 -20.84467549 22.58372891 -17.91796875 19.13671875 C-14.84547621 15.71379937 -11.55253765 12.51089947 -8.26171875 9.29882812 C-5.26797819 6.35602818 -2.55273535 3.33256858 0 0 Z " fill="#264F7D" transform="translate(193,104)"/>
<path d="M0 0 C-0.74673513 11.69230011 -1.85631187 23.34104337 -3 35 C-5.64 33.02 -8.28 31.04 -11 29 C-14.66327525 30.83163762 -16.48119276 32.23486441 -19.30078125 35.0703125 C-20.11353516 35.885 -20.92628906 36.6996875 -21.76367188 37.5390625 C-22.60478516 38.39242187 -23.44589844 39.24578125 -24.3125 40.125 C-25.14201172 40.95515625 -25.97152344 41.7853125 -26.82617188 42.640625 C-31.13709168 46.98216696 -35.29595153 51.39766467 -39.28637695 56.03466797 C-42.40632171 59.61289212 -45.67826687 63.04904728 -48.9375 66.5 C-49.60201172 67.20769531 -50.26652344 67.91539062 -50.95117188 68.64453125 C-54.98810191 72.92814081 -59.09535956 77.12572061 -63.28930664 81.25585938 C-65.36850262 83.37570754 -67.2191359 85.62551453 -69 88 C-72.92369508 86.38381131 -75.71355438 83.68641668 -78.75 80.8125 C-79.8171856 79.81975027 -80.88489499 78.82756332 -81.953125 77.8359375 C-82.47197266 77.3522168 -82.99082031 76.86849609 -83.52539062 76.37011719 C-85.49787168 74.53740797 -87.48970009 72.72863187 -89.5 70.9375 C-90.0878125 70.41027344 -90.675625 69.88304687 -91.28125 69.33984375 C-93.09580328 67.92531699 -94.91279864 66.95663396 -97 66 C-97.84820312 66.73863281 -98.69640625 67.47726563 -99.5703125 68.23828125 C-105.62273481 73.48109948 -111.71402712 78.61828346 -118.0625 83.5 C-123.54725748 87.72183514 -128.66496462 92.22833795 -133.65063477 97.02929688 C-136.57866225 99.82141236 -139.44164941 102.06739124 -143 104 C-144.36748897 91.18612183 -144.36748897 91.18612183 -141.27734375 86.24609375 C-138.95810842 83.95868326 -136.57786123 81.99198368 -134 80 C-128.31347164 75.17815777 -122.85574454 70.11913783 -117.4375 65 C-116.72142578 64.32710938 -116.00535156 63.65421875 -115.26757812 62.9609375 C-111.28144771 59.20331137 -107.36032334 55.39624578 -103.52148438 51.48803711 C-101.47659765 49.48810377 -99.27813992 47.72586358 -97 46 C-92.08747438 47.49113906 -89.16274088 50.33016174 -85.5625 53.8125 C-83.38572924 55.88671383 -81.19849187 57.94882633 -79 60 C-78.47003418 60.50708496 -77.94006836 61.01416992 -77.39404297 61.53662109 C-75.69158866 63.13696086 -75.69158866 63.13696086 -73 65 C-69.46792007 64.70840879 -67.86888477 63.18730585 -65.53125 60.640625 C-64.88373779 59.94348389 -64.23622559 59.24634277 -63.5690918 58.52807617 C-62.8862915 57.77631104 -62.20349121 57.0245459 -61.5 56.25 C-60.78948486 55.48083252 -60.07896973 54.71166504 -59.34692383 53.91918945 C-57.90303188 52.35449962 -56.46265877 50.78655507 -55.02587891 49.21533203 C-53.24739551 47.27053107 -51.46085085 45.33385926 -49.66796875 43.40234375 C-47.71420446 41.29696183 -45.7661414 39.18662141 -43.82421875 37.0703125 C-41.87904107 34.95088921 -39.92200804 32.84326386 -37.95703125 30.7421875 C-36.97134964 29.68229588 -35.98567239 28.6224002 -35 27.5625 C-34.13375 26.63566406 -33.2675 25.70882812 -32.375 24.75390625 C-29.95063409 21.94275828 -27.98888821 19.12605346 -26 16 C-28.64 14.02 -31.28 12.04 -34 10 C-31.37595126 7.37595126 -29.14320374 7.0343989 -25.56640625 6.0546875 C-24.93266586 5.87994904 -24.29892548 5.70521057 -23.64598083 5.525177 C-22.30612354 5.15729464 -20.96535998 4.79269942 -19.6237793 4.43115234 C-17.57176755 3.87750047 -15.52308636 3.31266758 -13.47460938 2.74609375 C-3.4308985 0 -3.4308985 0 0 0 Z " fill="#85C755" transform="translate(211,62)"/>
<path d="M0 0 C7.04343398 -0.07466132 14.08663295 -0.12884281 21.13037109 -0.16479492 C23.52201353 -0.17979713 25.91362885 -0.20020547 28.30517578 -0.22631836 C31.76081064 -0.26308043 35.21607892 -0.27981264 38.671875 -0.29296875 C39.72550232 -0.30845261 40.77912964 -0.32393646 41.86468506 -0.33988953 C53.19830902 -0.34240692 65.04480073 1.72152792 73.75 9.4375 C74.4925 10.283125 75.235 11.12875 76 12 C76.680625 12.721875 77.36125 13.44375 78.0625 14.1875 C84.55079064 23.60598641 85.39001925 33.48613212 83.5625 44.6796875 C81.63307134 51.64974853 76.94976168 57.03349221 71 61 C67.37 58.03 63.74 55.06 60 52 C62 48 62 48 63.625 45.5625 C65.8394903 39.82495694 66.40079285 32.80728312 64.23828125 26.9296875 C61.23863358 22.21087417 57.49370465 19.88373577 52.19943237 18.42803955 C47.64280779 17.54125823 43.00646325 17.63648203 38.37890625 17.5859375 C37.27900864 17.56657135 36.17911102 17.5472052 35.04588318 17.5272522 C31.55149967 17.46773092 28.05708274 17.42118073 24.5625 17.375 C22.18553294 17.33679499 19.80857935 17.2977418 17.43164062 17.2578125 C11.62120385 17.16205185 5.8107023 17.07791947 0 17 C0 11.39 0 5.78 0 0 Z " fill="#1B4572" transform="translate(68,59)"/>
<path d="M0 0 C5.94 0 11.88 0 18 0 C18.19837865 6.13791169 18.34321671 12.27394235 18.43945312 18.41430664 C18.47958304 20.50090045 18.53410272 22.5872707 18.60351562 24.6730957 C18.70103683 27.67976041 18.74602902 30.68344386 18.78125 33.69140625 C18.82254028 34.61772354 18.86383057 35.54404083 18.90637207 36.49842834 C18.90909525 40.46607373 18.84186675 42.98351672 16.25228882 46.11021423 C14.23947383 47.87431299 12.17399881 49.44221369 10 51 C7.84580756 53.13025697 5.75335251 55.30275543 3.6640625 57.49609375 C2 59 2 59 0 59 C0 39.53 0 20.06 0 0 Z " fill="#1E4573" transform="translate(68,83)"/>
<path d="M0 0 C0 0.99 0 1.98 0 3 C-0.33 3.33 -0.66 3.66 -1 4 C2 5.33333333 2 5.33333333 5 4 C3.6124182 7.13879381 2.00476592 9.22254795 -0.44921875 11.609375 C-1.13306641 12.28226563 -1.81691406 12.95515625 -2.52148438 13.6484375 C-3.23626953 14.34195313 -3.95105469 15.03546875 -4.6875 15.75 C-10.04465721 20.97310416 -15.15700361 26.29337568 -20 32 C-20.66 31.34 -21.32 30.68 -22 30 C-21.01 28.35 -20.02 26.7 -19 25 C-19.99 24.34 -20.98 23.68 -22 23 C-20.82244141 21.83984375 -20.82244141 21.83984375 -19.62109375 20.65625 C-14.36814071 15.45682172 -9.17750921 10.27109869 -4.40234375 4.62109375 C-3.00193675 3.00223886 -1.53116482 1.49481669 0 0 Z " fill="#F2F6F1" transform="translate(185,103)"/>
<path d="M0 0 C0.66 0.99 1.32 1.98 2 3 C2.99 3.66 3.98 4.32 5 5 C2.03 8.3 -0.94 11.6 -4 15 C-4.66 14.34 -5.32 13.68 -6 13 C-5.01 11.35 -4.02 9.7 -3 8 C-3.99 7.34 -4.98 6.68 -6 6 C-4.02 4.02 -2.04 2.04 0 0 Z " fill="#EAEFEB" transform="translate(169,120)"/>
<path d="M0 0 C16.83 0 33.66 0 51 0 C51 0.33 51 0.66 51 1 C50.10797127 1.01213028 50.10797127 1.01213028 49.19792175 1.02450562 C43.01738829 1.11045549 36.83717911 1.20995473 30.65698242 1.31738281 C28.34942056 1.35570416 26.04179832 1.39055141 23.73413086 1.421875 C20.42019037 1.46745682 17.10666673 1.52546288 13.79296875 1.5859375 C12.7585112 1.59748871 11.72405365 1.60903992 10.6582489 1.62094116 C9.21709465 1.6507457 9.21709465 1.6507457 7.74682617 1.68115234 C6.90077316 1.69447601 6.05472015 1.70779968 5.18302917 1.7215271 C2.70908991 1.87258289 2.70908991 1.87258289 0 4 C0 2.68 0 1.36 0 0 Z " fill="#0A3868" transform="translate(69,60)"/>
<path d="M0 0 C0.99 0.33 1.98 0.66 3 1 C2.28972656 1.68707031 1.57945313 2.37414062 0.84765625 3.08203125 C-0.07144531 3.98308594 -0.99054688 4.88414062 -1.9375 5.8125 C-2.85402344 6.70582031 -3.77054687 7.59914062 -4.71484375 8.51953125 C-7.17935108 10.85436593 -7.17935108 10.85436593 -8 14 C-8.66 14 -9.32 14 -10 14 C-9.67967594 8.71465294 -6.61273386 5.56779936 -3 2 C-2.01 1.34 -1.02 0.68 0 0 Z " fill="#1B4775" transform="translate(81,163)"/>
<path d="M0 0 C0.66 0.66 1.32 1.32 2 2 C1.38125 2.7425 0.7625 3.485 0.125 4.25 C-2.02562108 6.78678881 -2.02562108 6.78678881 -2.9375 9.25 C-4 11 -4 11 -6.625 11.75 C-7.40875 11.8325 -8.1925 11.915 -9 12 C-6.78268341 6.8262613 -4.04983806 3.77984886 0 0 Z " fill="#174178" transform="translate(190,108)"/>
<path d="M0 0 C0.66 0.33 1.32 0.66 2 1 C1.27683594 1.77923828 1.27683594 1.77923828 0.5390625 2.57421875 C-2.81840021 6.28113166 -5.27513719 9.25662726 -7 14 C-7.99 14.33 -8.98 14.66 -10 15 C-10 13 -10 13 -8 11 C-7.80083984 10.06414062 -7.80083984 10.06414062 -7.59765625 9.109375 C-6.82162748 6.37044994 -5.49140979 5.19187834 -3.4375 3.25 C-2.79683594 2.63640625 -2.15617188 2.0228125 -1.49609375 1.390625 C-1.00238281 0.93171875 -0.50867188 0.4728125 0 0 Z " fill="#154271" transform="translate(171,128)"/>
<path d="M0 0 C0.99 0.33 1.98 0.66 3 1 C-0.3 3.97 -3.6 6.94 -7 10 C-7 7 -7 7 -5.46875 5.17578125 C-4.8190625 4.56089844 -4.169375 3.94601563 -3.5 3.3125 C-2.8503125 2.68988281 -2.200625 2.06726563 -1.53125 1.42578125 C-0.77328125 0.72001953 -0.77328125 0.72001953 0 0 Z " fill="#7FCE4F" transform="translate(87,133)"/>
<path d="M0 0 C0.33 0.99 0.66 1.98 1 3 C-0.40445835 5.2636564 -2.1967913 7.0208685 -4 9 C-4.66 8.01 -5.32 7.02 -6 6 C-4.02 4.02 -2.04 2.04 0 0 Z " fill="#8ED261" transform="translate(74,145)"/>
<path d="M0 0 C0.99 0.33 1.98 0.66 3 1 C1.35 2.98 -0.3 4.96 -2 7 C-2.6875 5.1875 -2.6875 5.1875 -3 3 C-1.5625 1.25 -1.5625 1.25 0 0 Z " fill="#33577E" transform="translate(73,134)"/>
<path d="M0 0 C0.66 0.66 1.32 1.32 2 2 C0.37660195 3.70884005 -1.29319053 5.37446717 -3 7 C-3.66 7 -4.32 7 -5 7 C-3.70700306 4.11562221 -2.34058637 2.12780579 0 0 Z " fill="#113D6A" transform="translate(190,108)"/>
<path d="M0 0 C1.25541557 3.76624671 0.37061958 5.37188934 -1 9 C-1.99 8.34 -2.98 7.68 -4 7 C-2.79618552 4.50638429 -1.54571278 2.31856917 0 0 Z " fill="#32597F" transform="translate(132,104)"/>
<path d="M0 0 C3.37503669 1.1858237 5.64722731 2.27573689 8 5 C6.68 5 5.36 5 4 5 C1.75 2.5 1.75 2.5 0 0 Z " fill="#A4DA6D" transform="translate(135,144)"/>
<path d="M0 0 C0.99 0.33 1.98 0.66 3 1 C1.37660195 2.70884005 -0.29319053 4.37446717 -2 6 C-2.66 6 -3.32 6 -4 6 C-2.84826645 3.53199953 -1.95216435 1.95216435 0 0 Z " fill="#70C141" transform="translate(114,108)"/>
<path d="M0 0 C0.99 0.33 1.98 0.66 3 1 C0.03 3.475 0.03 3.475 -3 6 C-3 3 -3 3 -1.5 1.3125 C-0.7575 0.6628125 -0.7575 0.6628125 0 0 Z " fill="#8CCB62" transform="translate(166,100)"/>
<path d="M0 0 C0.33 1.32 0.66 2.64 1 4 C-0.32 4.99 -1.64 5.98 -3 7 C-3.66 6.67 -4.32 6.34 -5 6 C-3.35 4.02 -1.7 2.04 0 0 Z " fill="#254F79" transform="translate(45,50)"/>
</svg>
