<?xml version="1.0" encoding="UTF-8"?>
<svg version="1.1" xmlns="http://www.w3.org/2000/svg" width="1024" height="1024">
<path d="M0 0 C337.92 0 675.84 0 1024 0 C1024 337.92 1024 675.84 1024 1024 C686.08 1024 348.16 1024 0 1024 C0 686.08 0 348.16 0 0 Z " fill="#FCFDFD" transform="translate(0,0)"/>
<path d="M0 0 C2.20380706 0.50136156 4.40855367 0.93274238 6.63085938 1.34277344 C56.42253366 11.07334612 104.34126751 42.82300778 135.36523438 82.53808594 C136.15414063 83.51003906 136.94304687 84.48199219 137.75585938 85.48339844 C144.81105404 94.33567099 150.72515328 103.73208212 156.36523438 113.53808594 C156.79868164 114.28832031 157.23212891 115.03855469 157.67871094 115.81152344 C183.59051113 161.23084265 191.02307718 214.30940615 182.36523438 265.53808594 C182.22601562 266.38032715 182.08679688 267.22256836 181.94335938 268.09033203 C174.18174806 313.33944798 150.57653562 353.55577566 119.36523438 386.53808594 C118.48996094 387.4675 117.6146875 388.39691406 116.71289062 389.35449219 C109.78662157 396.50451736 102.32295135 402.58561763 94.36523438 408.53808594 C93.52436279 409.17810547 93.52436279 409.17810547 92.66650391 409.83105469 C45.42553542 445.69281179 -16.26129472 461.00358009 -74.88476562 453.35058594 C-120.37378326 446.69690814 -163.6530201 428.07032556 -197.49414062 396.52636719 C-199.40875968 394.74800751 -201.37471931 393.08108656 -203.38476562 391.41308594 C-224.82359453 372.6108872 -242.04908938 347.48479368 -253.63476562 321.53808594 C-254.28276123 320.09199951 -254.28276123 320.09199951 -254.94384766 318.61669922 C-279.02000685 264.11891988 -281.6447654 202.05782553 -260.70068359 146.08374023 C-250.12641025 118.98682041 -235.45593392 94.19584741 -215.70117188 72.79199219 C-213.86736005 70.79178533 -212.12439195 68.74465356 -210.38476562 66.66308594 C-196.98620997 51.39852139 -180.0043488 38.9148393 -162.63476562 28.53808594 C-161.98523926 28.14556641 -161.33571289 27.75304687 -160.66650391 27.34863281 C-143.22098414 16.90697005 -124.26541682 8.84918824 -104.63476562 3.53808594 C-103.67739502 3.2722168 -103.67739502 3.2722168 -102.70068359 3.00097656 C-70.51446975 -5.8110632 -32.60099885 -7.47578976 0 0 Z " fill="#FBFCFB" transform="translate(550.634765625,293.4619140625)"/>
<path d="M0 0 C2.20380706 0.50136156 4.40855367 0.93274238 6.63085938 1.34277344 C56.42253366 11.07334612 104.34126751 42.82300778 135.36523438 82.53808594 C136.15414063 83.51003906 136.94304687 84.48199219 137.75585938 85.48339844 C144.81105404 94.33567099 150.72515328 103.73208212 156.36523438 113.53808594 C156.79868164 114.28832031 157.23212891 115.03855469 157.67871094 115.81152344 C183.59051113 161.23084265 191.02307718 214.30940615 182.36523438 265.53808594 C182.22601562 266.38032715 182.08679688 267.22256836 181.94335938 268.09033203 C174.18174806 313.33944798 150.57653562 353.55577566 119.36523438 386.53808594 C118.48996094 387.4675 117.6146875 388.39691406 116.71289062 389.35449219 C109.78662157 396.50451736 102.32295135 402.58561763 94.36523438 408.53808594 C93.52436279 409.17810547 93.52436279 409.17810547 92.66650391 409.83105469 C45.42553542 445.69281179 -16.26129472 461.00358009 -74.88476562 453.35058594 C-120.37378326 446.69690814 -163.6530201 428.07032556 -197.49414062 396.52636719 C-199.40875968 394.74800751 -201.37471931 393.08108656 -203.38476562 391.41308594 C-224.82359453 372.6108872 -242.04908938 347.48479368 -253.63476562 321.53808594 C-254.28276123 320.09199951 -254.28276123 320.09199951 -254.94384766 318.61669922 C-279.02000685 264.11891988 -281.6447654 202.05782553 -260.70068359 146.08374023 C-250.12641025 118.98682041 -235.45593392 94.19584741 -215.70117188 72.79199219 C-213.86736005 70.79178533 -212.12439195 68.74465356 -210.38476562 66.66308594 C-196.98620997 51.39852139 -180.0043488 38.9148393 -162.63476562 28.53808594 C-161.98523926 28.14556641 -161.33571289 27.75304687 -160.66650391 27.34863281 C-143.22098414 16.90697005 -124.26541682 8.84918824 -104.63476562 3.53808594 C-103.67739502 3.2722168 -103.67739502 3.2722168 -102.70068359 3.00097656 C-70.51446975 -5.8110632 -32.60099885 -7.47578976 0 0 Z M-91.63476562 17.53808594 C-92.54258789 17.76302734 -93.45041016 17.98796875 -94.38574219 18.21972656 C-100.53870782 19.78436861 -106.59846283 21.5731009 -112.63476562 23.53808594 C-113.32940918 23.76189941 -114.02405273 23.98571289 -114.73974609 24.21630859 C-168.47559454 41.91675166 -212.27841716 84.20801643 -237.53710938 134.07714844 C-241.52206748 142.30739788 -244.61123748 150.91839445 -247.63476562 159.53808594 C-248.04597656 160.69953125 -248.4571875 161.86097656 -248.88085938 163.05761719 C-252.04269597 172.64154989 -253.92764529 182.60447215 -255.63476562 192.53808594 C-255.81716797 193.59898437 -255.99957031 194.65988281 -256.1875 195.75292969 C-257.56037082 204.42986412 -257.94922878 212.88617975 -257.88476562 221.66308594 C-257.88133148 222.338172 -257.87789734 223.01325806 -257.87435913 223.70880127 C-257.71341181 250.84939261 -253.76824689 277.23742674 -243.63476562 302.53808594 C-243.35375 303.24223633 -243.07273437 303.94638672 -242.78320312 304.671875 C-228.10755704 340.86380127 -203.60546627 373.80393249 -171.63476562 396.53808594 C-170.98137207 397.00875488 -170.32797852 397.47942383 -169.65478516 397.96435547 C-152.7839477 410.0081598 -134.39385721 420.14184392 -114.63476562 426.53808594 C-113.99506836 426.74981445 -113.35537109 426.96154297 -112.69628906 427.1796875 C-95.25463287 432.89586054 -76.33221488 437.59656364 -57.93164062 437.77636719 C-57.10428909 437.78611572 -56.27693756 437.79586426 -55.42451477 437.8059082 C-29.78587173 438.0453916 -5.1639065 436.72379787 19.36523438 428.53808594 C20.11111816 428.29219727 20.85700195 428.04630859 21.62548828 427.79296875 C51.57713268 417.75239647 79.08734068 402.04302683 101.83935547 380.01269531 C102.8958096 378.99173804 103.95912854 377.97785449 105.02783203 376.96972656 C114.58963541 367.94437621 122.75409737 358.25527679 130.36523438 347.53808594 C130.77580078 346.96155273 131.18636719 346.38501953 131.609375 345.79101562 C162.36200224 301.91482259 174.96860056 245.38011539 166.87963867 192.47973633 C164.84260467 180.91787666 162.11451855 169.64743468 158.11376953 158.60546875 C157.38349892 156.58853087 156.69029093 154.56184331 156.00195312 152.53027344 C147.87917977 129.12763832 134.858544 107.0234827 118.36523438 88.53808594 C117.50542969 87.57 116.645625 86.60191406 115.75976562 85.60449219 C113.45559234 83.03809865 111.11323619 80.51079614 108.74609375 78.00244141 C107.42930657 76.60603237 106.12353521 75.19926 104.81835938 73.79199219 C97.0801445 65.71376484 88.41931762 59.07088459 79.36523438 52.53808594 C78.73069336 52.08014648 78.09615234 51.62220703 77.44238281 51.15039062 C30.35052505 17.59211625 -35.07798702 3.3188279 -91.63476562 17.53808594 Z " fill="#184071" transform="translate(550.634765625,293.4619140625)"/>
<path d="M0 0 C3.41622991 1.1387433 3.69318636 1.64511505 5.49609375 4.5859375 C6.20040527 5.71926514 6.20040527 5.71926514 6.91894531 6.87548828 C7.42006836 7.70032715 7.92119141 8.52516602 8.4375 9.375 C9.52455327 11.13032373 10.61179787 12.88552898 11.69921875 14.640625 C12.2514209 15.53845703 12.80362305 16.43628906 13.37255859 17.36132812 C15.80247416 21.30110122 18.27476177 25.2136009 20.75 29.125 C21.2346875 29.89255615 21.719375 30.6601123 22.21875 31.45092773 C31.32414336 45.85951051 40.51723665 60.21317323 49.8125 74.5 C50.59403442 75.70148682 50.59403442 75.70148682 51.39135742 76.92724609 C53.99366536 80.9251846 56.60168189 84.91930432 59.21484375 88.91015625 C60.2266208 90.46089946 61.23834206 92.01167908 62.25 93.5625 C62.94959839 94.62597656 62.94959839 94.62597656 63.66333008 95.7109375 C65.44893722 98.45272154 66.96051461 100.88154383 68 104 C63.35632794 107.17317591 58.6522241 110.23052895 53.86572266 113.18432617 C46.34844661 117.82622985 38.96598402 122.64662518 31.625 127.5625 C23.37825087 133.08458725 15.11635991 138.58123348 6.81365967 144.01876831 C5.17646099 145.09128819 3.54060088 146.16585052 1.90478516 147.24047852 C-16.92529318 159.55589226 -34.08179499 166.16700432 -57.03613281 161.50878906 C-71.05659004 157.87643789 -83.05404197 147.8249526 -91 136 C-95.09181988 128.98545163 -98.01930775 121.86577067 -100 114 C-100.17128418 113.37319336 -100.34256836 112.74638672 -100.51904297 112.10058594 C-103.76338792 97.93086817 -100.30571999 80.78834553 -93.40625 68.23046875 C-86.45380918 57.20312512 -77.76849659 49.0087892 -66.6875 42.25 C-65.72110596 41.64784668 -64.75471191 41.04569336 -63.7590332 40.42529297 C-61.78204896 39.19375027 -59.80248807 37.96633375 -57.8203125 36.74316406 C-53.75791329 34.23229752 -49.72269168 31.67926716 -45.6875 29.125 C-44.93750732 28.65199463 -44.18751465 28.17898926 -43.41479492 27.69165039 C-34.54023059 22.0921678 -25.70939862 16.42426274 -16.875 10.76171875 C-15.90433594 10.14345215 -14.93367188 9.52518555 -13.93359375 8.88818359 C-11.91309154 7.58770389 -9.90589727 6.26639098 -7.91015625 4.92822266 C-6.92917969 4.27772949 -5.94820313 3.62723633 -4.9375 2.95703125 C-4.05964844 2.36510986 -3.18179688 1.77318848 -2.27734375 1.16333008 C-1.52582031 0.77943115 -0.77429688 0.39553223 0 0 Z " fill="#2E5683" transform="translate(472,522)"/>
<path d="M0 0 C14.02811367 2.24858653 24.81967041 12.38015805 33.1796875 23.26171875 C40.4981809 34.27086869 43.39277095 45.33168413 43.25 58.375 C43.24033203 59.30401123 43.23066406 60.23302246 43.22070312 61.19018555 C42.92845136 77.84415218 37.55669569 92.63936026 26 105 C25.42765625 105.61359375 24.8553125 106.2271875 24.265625 106.859375 C16.3004549 114.56965965 6.32526454 120.11149576 -3 126 C-6.52189958 128.22748714 -10.04268023 130.45672787 -13.5625 132.6875 C-14.45219482 133.25009521 -15.34188965 133.81269043 -16.25854492 134.39233398 C-21.61024497 137.79214343 -26.91449053 141.25534013 -32.18359375 144.78125 C-32.7922377 145.18849808 -33.40088165 145.59574615 -34.02796936 146.01533508 C-37.01984678 148.01967623 -40.00749035 150.03006245 -42.99047852 152.04760742 C-44.07643311 152.77826416 -45.1623877 153.5089209 -46.28125 154.26171875 C-47.72081055 155.23564575 -47.72081055 155.23564575 -49.18945312 156.22924805 C-52.04666929 158.02940344 -54.95628207 159.54141122 -58 161 C-62.32903383 155.11960592 -66.2324174 149.06122405 -70 142.8125 C-75.09180551 134.36872504 -80.44153294 126.10892538 -85.87304688 117.88012695 C-87.59620969 115.26226256 -89.30369996 112.63533274 -91 110 C-91.67506592 108.96625244 -91.67506592 108.96625244 -92.36376953 107.91162109 C-95.06601714 103.55677838 -95.06601714 103.55677838 -94.76196289 100.99243164 C-93.43707686 97.52803084 -90.51476396 95.25874025 -87.875 92.75 C-86.67651295 91.58395272 -85.47988225 90.41599428 -84.28515625 89.24609375 C-83.71168457 88.68519043 -83.13821289 88.12428711 -82.54736328 87.54638672 C-80.1341008 85.13464728 -77.94374432 82.55652246 -75.73828125 79.95703125 C-72.78153197 76.62819667 -69.56455176 73.55777036 -66.3984375 70.4296875 C-64.3801527 68.38510583 -62.48500482 66.31163982 -60.625 64.125 C-57.14207302 60.04782955 -53.36295927 56.30347438 -49.52587891 52.56298828 C-46.76287494 49.84792432 -44.15364612 47.06075241 -41.625 44.125 C-37.32556548 39.1546647 -32.64972314 34.59896216 -27.9609375 30 C-24.03857504 26.12307031 -20.33934228 22.14227638 -16.74121094 17.96386719 C-13.85002839 14.7029765 -10.73834898 11.67196627 -7.625 8.625 C-6.38573581 7.41118271 -5.14864259 6.19514371 -3.9140625 4.9765625 C-3.3773291 4.45143066 -2.8405957 3.92629883 -2.28759766 3.38525391 C-0.88723997 2.0089621 -0.88723997 2.0089621 0 0 Z " fill="#234C7B" transform="translate(609,457)"/>
<path d="M0 0 C-0.44083025 14.45619201 -1.79577707 28.64292841 -3.62695312 42.98486328 C-4.2067742 47.67124433 -4.70325056 52.36541503 -5.1875 57.0625 C-5.2712085 57.87219238 -5.35491699 58.68188477 -5.44116211 59.51611328 C-5.62903831 61.34391208 -5.81479609 63.17192849 -6 65 C-10.70208707 61.55587389 -15.16809013 58.06294184 -19.359375 54.00390625 C-20.94099659 52.84131089 -20.94099659 52.84131089 -22.83984375 52.9921875 C-26.10523931 54.5156451 -28.35172833 56.99943834 -30.8125 59.5625 C-31.3480249 60.10898193 -31.8835498 60.65546387 -32.43530273 61.21850586 C-35.80862122 64.68585412 -39.02639439 68.25597971 -42.16015625 71.94140625 C-44.50495089 74.56498752 -46.99630842 77.02989811 -49.5 79.5 C-52.5740377 82.53285146 -55.57999179 85.5793933 -58.375 88.875 C-62.04758602 93.18629664 -66.07068451 97.12637923 -70.11865234 101.08154297 C-72.9993299 103.91650944 -75.73840305 106.81052103 -78.375 109.875 C-82.86917081 115.07589534 -87.78266714 119.83127775 -92.68359375 124.64453125 C-96.72839072 128.64544254 -100.56154656 132.73682041 -104.27148438 137.04882812 C-107.19634139 140.35044638 -110.35105848 143.41399697 -113.5 146.5 C-118.13706886 151.06664674 -122.62423038 155.6116047 -126.60546875 160.77734375 C-128 162 -128 162 -132 162 C-133.65649414 160.94946289 -133.65649414 160.94946289 -135.28515625 159.47265625 C-135.89214355 158.93278076 -136.49913086 158.39290527 -137.12451172 157.83666992 C-137.76404785 157.25119385 -138.40358398 156.66571777 -139.0625 156.0625 C-140.41938846 154.85023543 -141.77746685 153.63930146 -143.13671875 152.4296875 C-143.79978027 151.83639648 -144.4628418 151.24310547 -145.14599609 150.63183594 C-147.49191986 148.56702761 -149.92247983 146.62389841 -152.375 144.6875 C-158.19713086 139.98601989 -163.58176878 134.83823096 -168.98779297 129.6706543 C-172.88113813 125.95477451 -176.81742198 122.38808518 -181 119 C-184.82483363 120.66297114 -187.90014832 123.15852741 -191.125 125.75 C-192.3811257 126.7478803 -193.63765598 127.74525148 -194.89453125 128.7421875 C-195.56049316 129.27166992 -196.22645508 129.80115234 -196.91259766 130.34667969 C-200.52904625 133.21107616 -204.1704368 136.04328898 -207.8125 138.875 C-208.56974365 139.4642627 -209.3269873 140.05352539 -210.10717773 140.66064453 C-215.2781725 144.67857697 -220.47705553 148.65843138 -225.6875 152.625 C-232.33040155 157.68553029 -238.87209582 162.85991711 -245.37890625 168.09375 C-253.86744723 174.91925783 -262.46479429 181.60530985 -271.1081543 188.2331543 C-276.84818725 192.63995111 -282.53263313 197.11660878 -288.21630859 201.59570312 C-290.02411146 203.01898291 -291.8339765 204.43959792 -293.64453125 205.859375 C-294.24297852 206.32891602 -294.84142578 206.79845703 -295.45800781 207.28222656 C-296.64035502 208.20941873 -297.8232857 209.13586741 -299.00683594 210.06152344 C-303.40635624 213.5095254 -307.72863419 217.04468649 -312.01171875 220.63671875 C-314 222 -314 222 -317 222 C-316.3709375 221.05640625 -315.741875 220.1128125 -315.09375 219.140625 C-314.68406982 218.52598389 -314.27438965 217.91134277 -313.85229492 217.27807617 C-312.93884434 215.90814767 -312.02493293 214.53852634 -311.1105957 213.16918945 C-309.06712962 210.10772252 -307.02872289 207.04384614 -305.01171875 203.96484375 C-292.26700613 184.56122346 -278.96593943 167.37139945 -260.75 152.75 C-254.6996465 147.87152271 -249.0971113 142.55735983 -243.4453125 137.23046875 C-240.32224078 134.28967421 -237.13727908 131.43600823 -233.88671875 128.63671875 C-231.56341213 126.62126228 -229.28251535 124.56151538 -227 122.5 C-223.38323655 119.23609152 -219.73610392 116.01209051 -216.0625 112.8125 C-212.82210155 109.96487712 -209.62758635 107.06663714 -206.42578125 104.17578125 C-203.73689932 101.76401436 -201.01304634 99.39679593 -198.2734375 97.04296875 C-196.39528179 95.35521026 -194.58961768 93.63192653 -192.7890625 91.86328125 C-191.93018433 91.03340698 -191.93018433 91.03340698 -191.05395508 90.18676758 C-189.90898948 89.07775772 -188.77553916 87.95671174 -187.6550293 86.82299805 C-183.70338835 83.02530933 -183.70338835 83.02530933 -180.39453125 82.90625 C-177.50680818 84.22527522 -175.66303829 85.79613703 -173.375 88 C-169.92025221 91.23564136 -166.43422597 94.340123 -162.75 97.3125 C-158.4031794 100.83428666 -154.12162373 104.42123513 -149.875 108.0625 C-149.28130615 108.57119629 -148.6876123 109.07989258 -148.07592773 109.60400391 C-143.90739025 113.18893457 -139.80889463 116.84379329 -135.76953125 120.57421875 C-133.94890566 122.21090811 -133.94890566 122.21090811 -131 123 C-130.78730469 122.45859375 -130.57460938 121.9171875 -130.35546875 121.359375 C-128.50981064 118.14675974 -125.96036753 115.79448884 -123.3125 113.25 C-119.25426378 109.27845508 -115.38899995 105.25276637 -111.70703125 100.92578125 C-109.01143674 97.88475587 -106.08728948 95.07932623 -103.1953125 92.2265625 C-100.55993257 89.55366826 -98.12233511 86.74631697 -95.6796875 83.8984375 C-93.47834607 81.41040974 -91.11911485 79.10805923 -88.75 76.78125 C-86.91757513 74.91610326 -85.20646865 72.98072254 -83.5 71 C-81.2544206 68.39352391 -78.95448488 65.91065479 -76.5 63.5 C-73.53333034 60.57917291 -70.79940229 57.52266465 -68.0859375 54.3671875 C-65.94455806 51.93708274 -63.74564278 49.5712015 -61.53295898 47.20629883 C-56.6748883 42.0107279 -52.11074277 36.82355226 -48 31 C-52.81191572 26.07559794 -57.70987876 21.40843437 -63 17 C-60.14773214 15.46475958 -57.45518295 14.4896166 -54.31640625 13.703125 C-52.9401709 13.35278198 -52.9401709 13.35278198 -51.53613281 12.99536133 C-50.55483398 12.74939209 -49.57353516 12.50342285 -48.5625 12.25 C-40.59106196 10.21416096 -32.65480581 8.09381057 -24.75 5.8125 C-23.87939941 5.56193848 -23.00879883 5.31137695 -22.11181641 5.05322266 C-19.74086944 4.36999088 -17.37034799 3.68530648 -15 3 C-12.81420228 2.36907244 -10.6270672 1.74271896 -8.4375 1.125 C-7.25994141 0.78855469 -7.25994141 0.78855469 -6.05859375 0.4453125 C-4 0 -4 0 0 0 Z " fill="#85C250" transform="translate(642,379)"/>
<path d="M0 0 C12.21 0 24.42 0 37 0 C37.24918631 11.54447051 37.45069642 23.08713625 37.56993389 34.63369465 C37.62718237 39.99615729 37.70473701 45.35667455 37.82983398 50.71801758 C37.94995346 55.89886054 38.01524741 61.07784106 38.04364967 66.25996971 C38.06387044 68.23005673 38.10336062 70.20004934 38.16303062 72.16933632 C38.65859583 89.21280688 38.65859583 89.21280688 33.18765736 95.1196394 C30.91170397 97.23762645 28.46763006 99.11189624 26 101 C24.61052501 102.46735361 23.24775606 103.9614954 21.9375 105.5 C21.41027344 106.1084375 20.88304687 106.716875 20.33984375 107.34375 C18.81900736 109.17176941 18.81900736 109.17176941 17 112 C10.45791576 108.9534087 3.95108617 105.21498682 0 99 C-2.30366907 91.74085401 -1.51328392 83.77778604 -1.26953125 76.26953125 C-1.24525158 74.06570382 -1.22676217 71.86180569 -1.21379089 69.65788269 C-1.16440818 63.88726348 -1.03695221 58.12097228 -0.89263916 52.35205078 C-0.75908738 46.45339505 -0.70016042 40.55403219 -0.63476562 34.65429688 C-0.49579269 23.10066735 -0.26735626 11.55137244 0 0 Z " fill="#153F6E" transform="translate(493,375)"/>
<path d="M0 0 C12.21 0 24.42 0 37 0 C37 14.85 37 29.7 37 45 C18 50 18 50 11 51 C13.8546715 54.92517332 17.09826589 57.9537198 20.76171875 61.0859375 C23.20226606 63.17296749 25.60284341 65.30082185 28 67.4375 C28.763125 68.11683594 29.52625 68.79617188 30.3125 69.49609375 C30.869375 69.99238281 31.42625 70.48867188 32 71 C30.39688442 74.82766361 27.94515468 77.42524783 25.125 80.4375 C24.64393799 80.95465576 24.16287598 81.47181152 23.66723633 82.00463867 C22.64309005 83.10536898 21.6170774 84.20436526 20.58935547 85.30175781 C17.94411464 88.12822405 15.31556732 90.97007358 12.6875 93.8125 C12.1819458 94.35793457 11.6763916 94.90336914 11.15551758 95.46533203 C8.47733595 98.36370494 5.8555233 101.29494125 3.3125 104.3125 C2.549375 105.199375 1.78625 106.08625 1 107 C0.67 107 0.34 107 0 107 C0 71.69 0 36.38 0 0 Z " fill="#163E6F" transform="translate(547,339)"/>
<path d="M0 0 C12.54 0 25.08 0 38 0 C38.2475 5.878125 38.495 11.75625 38.75 17.8125 C38.85924805 19.64401611 38.96849609 21.47553223 39.08105469 23.36254883 C39.5067307 35.73919059 39.5067307 35.73919059 35.42041016 40.52636719 C32.52008817 43.38142642 29.33734948 45.68090315 26 48 C24.60836063 49.18913175 23.22853446 50.39266932 21.875 51.625 C21.25753906 52.15996094 20.64007813 52.69492187 20.00390625 53.24609375 C16.76219131 56.08338421 13.58142572 58.98813783 10.39453125 61.88671875 C8.72781595 63.35766978 7.01185178 64.77388498 5.26171875 66.14453125 C2.92992241 67.80027573 2.92992241 67.80027573 2 70 C1.34 70 0.68 70 0 70 C0 46.9 0 23.8 0 0 Z " fill="#1C4373" transform="translate(385,445)"/>
<path d="M0 0 C12.54 0 25.08 0 38 0 C38 16.83 38 33.66 38 51 C33.17959477 48.58979738 29.67749694 45.35251447 25.65625 41.80078125 C23.2394364 39.79099021 23.2394364 39.79099021 20.859375 40.03515625 C18.71102499 41.14995132 17.39259235 42.34685391 15.75 44.125 C13.18747418 46.79774199 10.58154476 49.35284572 7.8125 51.8125 C7.17957031 52.37582031 6.54664063 52.93914062 5.89453125 53.51953125 C4 55 4 55 0 57 C0 38.19 0 19.38 0 0 Z " fill="#1C4472" transform="translate(439,409)"/>
<path d="M0 0 C1.32 0.66 2.64 1.32 4 2 C4 2.99 4 3.98 4 5 C2.64233398 6.28686523 2.64233398 6.28686523 0.74609375 7.55859375 C-0.2893457 8.26145508 -0.2893457 8.26145508 -1.34570312 8.97851562 C-2.07724609 9.45998047 -2.80878906 9.94144531 -3.5625 10.4375 C-4.61920898 11.15389648 -4.61920898 11.15389648 -5.69726562 11.88476562 C-10.02825048 14.79470844 -14.43992144 17.46529142 -19 20 C-18.7586493 16.34712456 -18.13023241 15.12962479 -15.48828125 12.5 C-14.43988197 11.653877 -13.38083414 10.82080895 -12.3125 10 C-11.79494141 9.5875 -11.27738281 9.175 -10.74414062 8.75 C-9.70103429 7.91863256 -8.65431914 7.09177244 -7.60400391 6.26953125 C-5.02700401 4.22989663 -2.51690304 2.11314198 0 0 Z " fill="#244B75" transform="translate(459,510)"/>
<path d="M0 0 C-1.51664929 4.12712443 -4.04652452 5.63048291 -7.6875 7.9375 C-8.75871094 8.62714844 -9.82992188 9.31679688 -10.93359375 10.02734375 C-12.45146484 11.00380859 -12.45146484 11.00380859 -14 12 C-16.35788916 13.63600629 -18.67892786 15.31194754 -21 17 C-21.66 16.67 -22.32 16.34 -23 16 C-20.06382588 13.70663047 -17.12583438 11.41560087 -14.1875 9.125 C-13.35412109 8.47402344 -12.52074219 7.82304688 -11.66210938 7.15234375 C-10.85966797 6.52714844 -10.05722656 5.90195312 -9.23046875 5.2578125 C-8.49207764 4.6817627 -7.75368652 4.10571289 -6.99291992 3.51220703 C-2.36422344 0 -2.36422344 0 0 0 Z " fill="#395B87" transform="translate(423,540)"/>
<path d="M0 0 C0.66 0.33 1.32 0.66 2 1 C-1.63 4.63 -5.26 8.26 -9 12 C-9.99 11.67 -10.98 11.34 -12 11 C-10.56564079 9.5385774 -9.12739414 8.08096951 -7.6875 6.625 C-6.88699219 5.81289063 -6.08648437 5.00078125 -5.26171875 4.1640625 C-3 2 -3 2 0 0 Z " fill="#2D5581" transform="translate(350,351)"/>
<path d="M0 0 C0.33 1.32 0.66 2.64 1 4 C-1.31 5.32 -3.62 6.64 -6 8 C-5.62403791 5.21788056 -5.32681541 3.4120716 -3.5625 1.1875 C-2 0 -2 0 0 0 Z " fill="#2B537D" transform="translate(446,522)"/>
<path d="M0 0 C1.37095624 3.69037278 0.60010967 5.70883835 -0.9375 9.25 C-1.31777344 10.14203125 -1.69804688 11.0340625 -2.08984375 11.953125 C-2.39019531 12.62859375 -2.69054687 13.3040625 -3 14 C-3.66 13.67 -4.32 13.34 -5 13 C-3.58192622 8.52761347 -1.88695626 4.28853694 0 0 Z " fill="#2D537E" transform="translate(702,601)"/>
<path d="M0 0 C0.33 0 0.66 0 1 0 C1 3.3 1 6.6 1 10 C-1.5 8.625 -1.5 8.625 -4 7 C-4 6.34 -4 5.68 -4 5 C-3.01 5 -2.02 5 -1 5 C-0.67 3.35 -0.34 1.7 0 0 Z " fill="#75BA49" transform="translate(635,434)"/>
<path d="M0 0 C0.66 0.99 1.32 1.98 2 3 C0.35 5.97 -1.3 8.94 -3 12 C-4 10 -4 10 -3.22265625 7.6171875 C-2.83980469 6.71226562 -2.45695312 5.80734375 -2.0625 4.875 C-1.68222656 3.96492188 -1.30195313 3.05484375 -0.91015625 2.1171875 C-0.60980469 1.41851562 -0.30945313 0.71984375 0 0 Z " fill="#31587F" transform="translate(293,432)"/>
<path d="M0 0 C0.66 0.66 1.32 1.32 2 2 C-0.97 4.475 -0.97 4.475 -4 7 C-4 4 -4 4 -2 1.8125 C-1.34 1.214375 -0.68 0.61625 0 0 Z " fill="#33557F" transform="translate(560,429)"/>
</svg>
