<?xml version="1.0" standalone="no"?>
<!DOCTYPE svg PUBLIC "-//W3C//DTD SVG 20010904//EN"
 "http://www.w3.org/TR/2001/REC-SVG-20010904/DTD/svg10.dtd">
<svg version="1.0" xmlns="http://www.w3.org/2000/svg"
 width="599.000000pt" height="598.000000pt" viewBox="0 0 599.000000 598.000000"
 preserveAspectRatio="xMidYMid meet">

<g transform="translate(0.000000,598.000000) scale(0.100000,-0.100000)"
fill="#000000" stroke="none">
<path d="M2745 5974 c-142 -15 -344 -49 -466 -80 -553 -139 -999 -392 -1400
-793 -248 -248 -410 -473 -559 -776 -161 -326 -250 -620 -296 -972 -22 -162
-24 -533 -6 -688 70 -570 288 -1100 634 -1537 104 -133 344 -372 478 -478 416
-330 896 -538 1433 -622 123 -19 181 -22 432 -22 328 0 453 14 715 80 554 139
1000 392 1401 793 248 248 410 473 559 776 162 329 249 614 297 978 20 154 23
528 4 682 -43 363 -137 677 -301 1010 -148 301 -313 530 -559 776 -401 401
-847 654 -1399 793 -241 60 -383 77 -672 81 -140 2 -273 1 -295 -1z m480 -114
c712 -61 1355 -362 1840 -862 711 -731 983 -1747 731 -2729 -94 -369 -297
-772 -542 -1079 -94 -118 -329 -351 -451 -448 -859 -680 -2039 -821 -3037
-362 -191 88 -426 234 -606 376 -109 87 -346 324 -434 434 -607 761 -791 1782
-486 2700 218 653 659 1207 1249 1564 507 308 1142 456 1736 406z"/>
<path d="M2761 5719 c-556 -49 -1034 -236 -1481 -579 -124 -96 -386 -360 -476
-480 -345 -462 -528 -949 -565 -1507 -21 -328 29 -708 137 -1031 135 -403 352
-752 658 -1058 223 -222 429 -373 687 -504 418 -212 806 -305 1274 -304 296 0
508 30 781 109 580 169 1113 546 1460 1035 523 738 654 1663 354 2500 -144
402 -346 719 -654 1026 -429 427 -944 685 -1546 774 -159 24 -474 33 -629 19z
m16 -1189 c441 -42 727 -245 825 -586 18 -65 22 -103 22 -214 0 -164 -16 -238
-80 -368 -95 -192 -291 -350 -534 -432 -36 -12 -67 -23 -69 -25 -3 -4 501
-729 524 -753 12 -14 74 67 416 543 118 165 159 268 138 348 -20 77 -79 115
-201 133 l-48 6 0 44 0 44 455 0 455 0 0 -44 0 -44 -70 -16 c-188 -42 -277
-121 -555 -491 -141 -189 -464 -640 -472 -661 -5 -15 211 -295 305 -395 134
-143 228 -200 402 -246 l100 -26 0 -44 0 -43 -300 0 c-180 0 -320 4 -352 11
-101 21 -177 65 -265 155 l-81 83 -90 -137 c-49 -75 -100 -156 -113 -179 l-23
-41 -131 5 c-71 3 -135 8 -142 12 -8 4 10 35 55 91 118 150 303 413 298 425
-2 6 -169 260 -370 563 l-367 552 -215 0 -215 0 2 -482 c4 -727 11 -794 96
-868 46 -41 68 -49 193 -75 l105 -21 3 -47 3 -47 -625 0 -626 0 0 48 0 47 111
22 c84 16 122 28 153 50 49 35 90 105 105 184 16 81 16 2516 0 2591 -33 153
-94 202 -285 230 l-84 12 0 41 c0 23 3 45 7 48 10 11 1421 8 1540 -3z"/>
<path d="M2210 4350 c-127 -16 -117 -7 -125 -112 -3 -51 -5 -356 -3 -678 l3
-585 240 1 c275 0 326 9 465 76 166 80 275 228 315 427 21 103 16 312 -10 406
-49 178 -163 320 -316 393 -46 22 -113 47 -149 57 -78 19 -312 28 -420 15z"/>
</g>
</svg>
